<svg width="1600" height="720" viewBox="0 0 1600 720" fill="none" xmlns="http://www.w3.org/2000/svg">
  <rect width="1600" height="720" rx="40" fill="#F7F5F0"/>
  <path d="M0 560C178 504 337 511 476 581C664 675 850 681 1032 600C1214 519 1389 518 1600 604V720H0V560Z" fill="#ECE8DF"/>
  <g opacity=".55">
    <path d="M160 120H1440" stroke="#D9D3C6" stroke-width="2"/>
    <path d="M160 220H1440" stroke="#D9D3C6" stroke-width="2"/>
    <path d="M160 320H1440" stroke="#D9D3C6" stroke-width="2"/>
    <path d="M160 420H1440" stroke="#D9D3C6" stroke-width="2"/>
    <path d="M160 520H1440" stroke="#D9D3C6" stroke-width="2"/>
    <path d="M300 84V616" stroke="#D9D3C6" stroke-width="2"/>
    <path d="M500 84V616" stroke="#D9D3C6" stroke-width="2"/>
    <path d="M700 84V616" stroke="#D9D3C6" stroke-width="2"/>
    <path d="M900 84V616" stroke="#D9D3C6" stroke-width="2"/>
    <path d="M1100 84V616" stroke="#D9D3C6" stroke-width="2"/>
    <path d="M1300 84V616" stroke="#D9D3C6" stroke-width="2"/>
  </g>

  <g filter="url(#shadow)">
    <rect x="130" y="118" width="460" height="430" rx="22" fill="#FFFDF8" stroke="#242424" stroke-width="4"/>
    <path d="M130 192H590" stroke="#242424" stroke-width="4"/>
    <circle cx="176" cy="155" r="12" fill="#242424"/>
    <circle cx="218" cy="155" r="12" fill="#C7C1B5"/>
    <circle cx="260" cy="155" r="12" fill="#C7C1B5"/>
    <rect x="180" y="250" width="260" height="24" rx="12" fill="#242424"/>
    <rect x="180" y="312" width="330" height="16" rx="8" fill="#D8D2C6"/>
    <rect x="180" y="352" width="282" height="16" rx="8" fill="#D8D2C6"/>
    <rect x="180" y="392" width="180" height="16" rx="8" fill="#D8D2C6"/>
    <rect x="180" y="456" width="136" height="44" rx="12" fill="#242424"/>
    <text x="336" y="485" fill="#242424" font-family="Inter, Arial, sans-serif" font-size="28" font-weight="700">.lark.md</text>
  </g>

  <g filter="url(#shadow)">
    <rect x="1010" y="148" width="420" height="360" rx="28" fill="#FFFFFF" stroke="#242424" stroke-width="4"/>
    <rect x="1064" y="202" width="118" height="118" rx="28" fill="#00D6B4"/>
    <rect x="1182" y="202" width="118" height="118" rx="28" fill="#3370FF"/>
    <rect x="1064" y="320" width="118" height="118" rx="28" fill="#FFB300"/>
    <rect x="1182" y="320" width="118" height="118" rx="28" fill="#00B96B"/>
    <path d="M1338 234H1382" stroke="#242424" stroke-width="14" stroke-linecap="round"/>
    <path d="M1338 282H1382" stroke="#242424" stroke-width="14" stroke-linecap="round"/>
    <path d="M1338 330H1382" stroke="#242424" stroke-width="14" stroke-linecap="round"/>
    <path d="M1338 378H1366" stroke="#242424" stroke-width="14" stroke-linecap="round"/>
  </g>

  <path d="M628 336C731 284 856 284 958 336" stroke="#242424" stroke-width="10" stroke-linecap="round"/>
  <path d="M918 286L958 336L898 348" stroke="#242424" stroke-width="10" stroke-linecap="round" stroke-linejoin="round"/>
  <path d="M958 408C855 460 730 460 628 408" stroke="#242424" stroke-width="10" stroke-linecap="round"/>
  <path d="M668 458L628 408L688 396" stroke="#242424" stroke-width="10" stroke-linecap="round" stroke-linejoin="round"/>

  <g>
    <text x="664" y="268" fill="#242424" font-family="Inter, Arial, sans-serif" font-size="72" font-weight="800">Obsidian</text>
    <text x="716" y="356" fill="#242424" font-family="Inter, Arial, sans-serif" font-size="72" font-weight="800">Lark</text>
    <rect x="680" y="390" width="230" height="54" rx="14" fill="#FFFDF8" stroke="#242424" stroke-width="3"/>
    <text x="706" y="426" fill="#242424" font-family="Inter, Arial, sans-serif" font-size="25" font-weight="700">local notes sync</text>
  </g>

  <g opacity=".85">
    <rect x="224" y="594" width="188" height="52" rx="18" fill="#FFFDF8" stroke="#242424" stroke-width="3"/>
    <text x="252" y="628" fill="#242424" font-family="Inter, Arial, sans-serif" font-size="24" font-weight="700">WebView</text>
    <rect x="1162" y="594" width="206" height="52" rx="18" fill="#FFFDF8" stroke="#242424" stroke-width="3"/>
    <text x="1190" y="628" fill="#242424" font-family="Inter, Arial, sans-serif" font-size="24" font-weight="700">Title sync</text>
  </g>

  <defs>
    <filter id="shadow" x="90" y="78" width="1380" height="510" filterUnits="userSpaceOnUse" color-interpolation-filters="sRGB">
      <feDropShadow dx="0" dy="18" stdDeviation="18" flood-color="#242424" flood-opacity=".16"/>
    </filter>
  </defs>
</svg>
